<svg width="18" height="16" viewBox="0 0 18 16" fill="none" xmlns="http://www.w3.org/2000/svg">
<path d="M16.3926 15.0709C16.7973 15.0709 17.1479 14.9373 17.4459 14.6735L12.3462 9.57364C12.2239 9.66125 12.1053 9.74645 11.9932 9.82746C11.6116 10.1086 11.3018 10.3281 11.064 10.4853C10.8262 10.6429 10.5098 10.8035 10.1148 10.9675C9.71958 11.1317 9.35137 11.2135 9.0098 11.2135H8.9998H8.9898C8.6482 11.2135 8.27999 11.1317 7.88479 10.9675C7.48959 10.8035 7.17318 10.6429 6.9356 10.4853C6.69779 10.3281 6.38821 10.1087 6.00638 9.82746C5.89997 9.74946 5.78196 9.66387 5.65438 9.57227L0.553711 14.6735C0.85172 14.9373 1.20254 15.0709 1.60712 15.0709H16.3926Z" fill="white"/>
<path d="M1.01462 6.36228C0.633012 6.10786 0.294611 5.81649 0 5.48828V13.2473L4.49485 8.75249C3.59562 8.12471 2.43702 7.32889 1.01462 6.36228Z" fill="white"/>
<path d="M16.9964 6.36228C15.6282 7.2883 14.4654 8.08549 13.5078 8.75429L18.0008 13.2475V5.48828C17.7128 5.80989 17.378 6.10106 16.9964 6.36228Z" fill="white"/>
<path d="M16.3925 0.927734H1.60704C1.09122 0.927734 0.694647 1.10192 0.416834 1.44993C0.138792 1.7981 0 2.23353 0 2.75572C0 3.17753 0.184185 3.63456 0.552391 4.12695C0.920597 4.61914 1.3124 5.00575 1.7276 5.28696C1.95521 5.44778 2.64163 5.92497 3.78683 6.71838C4.40504 7.14678 4.94266 7.52018 5.40466 7.84241C5.79845 8.11679 6.13806 8.3544 6.41846 8.5516C6.45065 8.57418 6.50127 8.61039 6.56846 8.65843C6.64084 8.71042 6.73245 8.7764 6.84545 8.858C7.06307 9.01539 7.24386 9.14261 7.38785 9.2398C7.53164 9.33703 7.70585 9.44562 7.91024 9.56621C8.11445 9.68664 8.30707 9.77719 8.48785 9.83742C8.66867 9.89762 8.83606 9.92782 8.99005 9.92782H9.00005H9.01005C9.164 9.92782 9.33142 9.89762 9.51228 9.83742C9.69303 9.77719 9.88548 9.68683 10.0899 9.56621C10.294 9.44562 10.468 9.3368 10.6123 9.2398C10.7563 9.14261 10.9371 9.01542 11.1547 8.858C11.2675 8.7764 11.3591 8.71039 11.4315 8.65859C11.4987 8.61035 11.5493 8.57437 11.5817 8.5516C11.8001 8.3996 12.1405 8.16296 12.5982 7.84518C13.4309 7.26658 14.6573 6.41497 16.2826 5.28696C16.7714 4.94555 17.1797 4.53355 17.5079 4.05155C17.8356 3.56956 17.9998 3.06396 17.9998 2.53494C17.9998 2.09294 17.8406 1.71474 17.5227 1.39973C17.2046 1.08512 16.8278 0.927734 16.3925 0.927734Z" fill="white"/>
</svg>
