<svg width="16" height="16" viewBox="0 0 16 16" fill="none" xmlns="http://www.w3.org/2000/svg">
<path d="M13.3797 2.58852C12.6794 1.88305 11.8458 1.32375 10.9275 0.943094C10.0092 0.562442 9.0244 0.368024 8.03032 0.37113C3.86354 0.37113 0.472125 3.76254 0.472125 7.93219C0.472125 9.26453 0.821185 10.5673 1.48211 11.7118L0.40918 15.6306L4.41765 14.5786C5.52583 15.1823 6.76745 15.499 8.02937 15.4999H8.03223C12.199 15.4999 15.5933 12.1085 15.5933 7.93886C15.5958 6.94513 15.4014 5.96074 15.0213 5.04257C14.6412 4.1244 14.0829 3.29064 13.3788 2.58947L13.3797 2.58852ZM8.03223 14.2239C6.90604 14.224 5.80053 13.9213 4.83156 13.3474L4.60171 13.2101L2.22315 13.8328L2.85832 11.5143L2.70954 11.2759C2.07795 10.2752 1.74418 9.1155 1.74724 7.93219C1.74926 6.26518 2.41257 4.66707 3.59159 3.48858C4.77062 2.31009 6.36903 1.64751 8.03604 1.64625C9.71363 1.64625 11.2939 2.3024 12.4794 3.48787C13.0644 4.07077 13.5281 4.76382 13.8437 5.52697C14.1593 6.29013 14.3206 7.10826 14.3182 7.9341C14.3153 11.4028 11.4961 14.2229 8.03223 14.2229V14.2239ZM11.478 9.51536C11.2901 9.41998 10.3602 8.96411 10.1876 8.90116C10.015 8.83822 9.88911 8.80579 9.76132 8.99653C9.63638 9.18442 9.27301 9.61073 9.16238 9.73853C9.05175 9.86346 8.94207 9.88158 8.75419 9.78621C8.56631 9.69084 7.95498 9.49151 7.23397 8.84775C6.67318 8.34705 6.29265 7.72714 6.18202 7.53926C6.07139 7.35138 6.16962 7.24742 6.26595 7.15491C6.35274 7.07098 6.45383 6.9346 6.5492 6.82397C6.64457 6.71334 6.67414 6.63609 6.73708 6.50829C6.80003 6.38335 6.76951 6.27272 6.72182 6.17735C6.67414 6.08198 6.29551 5.15211 6.14101 4.77348C5.98937 4.40344 5.83105 4.45494 5.7147 4.44827C5.60407 4.44254 5.47913 4.44254 5.3542 4.44254C5.22926 4.44254 5.02326 4.49023 4.85063 4.67811C4.67801 4.86599 4.18876 5.32473 4.18876 6.2546C4.18876 7.18448 4.86494 8.08192 4.96031 8.20972C5.05568 8.33466 6.29265 10.2449 8.18768 11.0623C8.63784 11.2559 8.98976 11.3722 9.26348 11.4619C9.71649 11.6049 10.1275 11.584 10.4528 11.5363C10.8161 11.4829 11.5705 11.0804 11.7288 10.6388C11.8871 10.1973 11.8871 9.81959 11.8395 9.74139C11.7946 9.65746 11.6697 9.61073 11.479 9.5144L11.478 9.51536Z" fill="white"/>
</svg>
