<svg width="16" height="14" viewBox="0 0 16 14" fill="none" xmlns="http://www.w3.org/2000/svg">
<path d="M7.59369 2.96612L7.19102 2.40411C6.93707 2.04968 6.65187 1.75032 6.34129 1.50796L6.34126 1.50794C5.73114 1.03178 5.04635 0.793177 4.29349 0.789872C3.27302 0.785393 2.33957 1.18801 1.65572 1.92318L7.59369 2.96612ZM7.59369 2.96612L8.00131 2.40769M7.59369 2.96612L8.00131 2.40769M8.00131 2.40769C8.25847 2.05539 8.54618 1.75865 8.85877 1.51902C9.47319 1.0482 10.1601 0.815623 10.9129 0.818928C11.9334 0.823407 12.8632 1.2342 13.5405 1.97538C14.2117 2.7098 14.5905 3.724 14.5855 4.84292C14.5806 5.96798 14.1634 7.01829 13.1983 8.17235L13.1983 8.17238C12.3194 9.22351 11.048 10.2995 9.52005 11.59L9.52001 11.59L9.50644 11.6015C8.99184 12.0362 8.407 12.5303 7.79992 13.0565L7.79966 13.0567C7.73055 13.1167 7.64154 13.1499 7.54901 13.1495C7.4565 13.1491 7.36789 13.1152 7.299 13.0543L7.29866 13.0541C6.6917 12.5187 6.10738 12.0162 5.594 11.5747L5.59211 11.5731L5.59209 11.5731M8.00131 2.40769L5.59209 11.5731M5.59209 11.5731C4.07531 10.269 2.81336 9.18178 1.94372 8.12307C0.988799 6.96043 0.580739 5.90649 0.585677 4.78158C0.590589 3.66256 0.978251 2.65173 1.65567 1.92323L5.59209 11.5731Z" fill="#EB5757" stroke="#EB5757"/>
</svg>
