<svg width="16" height="15" viewBox="0 0 16 15" fill="none" xmlns="http://www.w3.org/2000/svg">
<path d="M7.59027 3.55401L7.1876 2.992C6.93366 2.63758 6.64845 2.33821 6.33787 2.09585L6.33784 2.09583C5.72772 1.61967 5.04293 1.38107 4.29007 1.37776C3.2696 1.37328 2.33615 1.7759 1.6523 2.51107L7.59027 3.55401ZM7.59027 3.55401L7.99789 2.99558M7.59027 3.55401L7.99789 2.99558M7.99789 2.99558C8.25505 2.64328 8.54276 2.34654 8.85535 2.10691C9.46977 1.63609 10.1566 1.40351 10.9095 1.40682C11.93 1.4113 12.8597 1.82209 13.5371 2.56327C14.2083 3.29769 14.587 4.31189 14.5821 5.43081C14.5772 6.55587 14.16 7.60618 13.1949 8.76024L13.1949 8.76027C12.316 9.8114 11.0446 10.8874 9.51663 12.1779L9.51659 12.1779L9.50303 12.1894C8.98842 12.6241 8.40358 13.1182 7.7965 13.6444L7.79624 13.6446C7.72713 13.7046 7.63812 13.7378 7.5456 13.7374C7.45309 13.7369 7.36447 13.7031 7.29558 13.6422L7.29525 13.6419C6.68828 13.1065 6.10396 12.6041 5.59058 12.1626L5.58869 12.161L5.58867 12.161M7.99789 2.99558L5.58867 12.161M5.58867 12.161C4.0719 10.8569 2.80994 9.76967 1.94031 8.71096C0.985381 7.54832 0.577321 6.49438 0.582259 5.36947C0.587171 4.25045 0.974833 3.23962 1.65226 2.51112L5.58867 12.161Z" stroke="#EB5757"/>
</svg>
