<svg width="16" height="16" viewBox="0 0 16 16" fill="none" xmlns="http://www.w3.org/2000/svg">
<g clip-path="url(#clip0_559_374)">
<path d="M7.59369 3.96612L7.19102 3.40411C6.93707 3.04968 6.65187 2.75032 6.34129 2.50796L6.34126 2.50794C5.73114 2.03178 5.04635 1.79318 4.29349 1.78987C3.27302 1.78539 2.33957 2.18801 1.65572 2.92318L7.59369 3.96612ZM7.59369 3.96612L8.00131 3.40769M7.59369 3.96612L8.00131 3.40769M8.00131 3.40769C8.25847 3.05539 8.54618 2.75865 8.85877 2.51902C9.47319 2.0482 10.1601 1.81562 10.9129 1.81893C11.9334 1.82341 12.8632 2.2342 13.5405 2.97538C14.2117 3.7098 14.5905 4.724 14.5855 5.84292C14.5806 6.96798 14.1634 8.01829 13.1983 9.17235L13.1983 9.17238C12.3194 10.2235 11.048 11.2995 9.52005 12.59L9.52001 12.59L9.50644 12.6015C8.99184 13.0362 8.407 13.5303 7.79992 14.0565L7.79966 14.0567C7.73055 14.1167 7.64154 14.1499 7.54901 14.1495C7.4565 14.1491 7.36789 14.1152 7.299 14.0543L7.29866 14.0541C6.6917 13.5187 6.10738 13.0162 5.594 12.5747L5.59211 12.5731L5.59209 12.5731M8.00131 3.40769L5.59209 12.5731M5.59209 12.5731C4.07531 11.269 2.81336 10.1818 1.94372 9.12307C0.988799 7.96043 0.580739 6.90649 0.585677 5.78158C0.590589 4.66256 0.978251 3.65173 1.65567 2.92323L5.59209 12.5731Z" stroke="#EB5757"/>
</g>
<defs>
<clipPath id="clip0_559_374">
<rect width="15" height="15" fill="white" transform="translate(0.108887 0.451172) rotate(0.251496)"/>
</clipPath>
</defs>
</svg>
