<svg width="16" height="17" viewBox="0 0 16 17" fill="none" xmlns="http://www.w3.org/2000/svg">
<path d="M7.90239 0.407538C6.63357 0.424676 3.90348 0.632959 2.37628 2.03228C1.24258 3.15939 0.84645 4.82104 0.800311 6.87884C0.760764 8.92872 0.714625 12.778 4.4255 13.8267V15.4218C4.4255 15.4218 4.40046 16.0611 4.8223 16.1929C5.34301 16.3577 5.63961 15.864 6.13396 15.3367L7.05673 14.2953C9.59437 14.5062 11.5388 14.0191 11.7629 13.9466C12.277 13.7819 15.1778 13.4121 15.6524 9.56214C16.1401 5.58695 15.4151 3.08227 14.11 1.94857L14.1034 1.94726C13.708 1.58474 12.1261 0.431267 8.58656 0.418084C8.58656 0.418084 8.32555 0.401606 7.90239 0.407538ZM7.94655 1.52607C8.30578 1.5241 8.52658 1.53926 8.52658 1.53926C11.519 1.54585 12.95 2.44885 13.2861 2.75205C14.3869 3.69394 14.9524 5.95276 14.5385 9.27212C14.143 12.4887 11.7899 12.693 11.3549 12.8314C11.1703 12.8907 9.45661 13.3126 7.29995 13.1741C7.29995 13.1741 5.69234 15.1126 5.19141 15.6136C5.11231 15.6993 5.02003 15.7256 4.96071 15.7124C4.87503 15.6927 4.84866 15.5872 4.85525 15.4422L4.86844 12.7932C1.72375 11.9231 1.9083 8.63936 1.94126 6.92563C1.98081 5.21191 2.30378 3.80665 3.25951 2.85751C4.54942 1.69086 6.86822 1.53267 7.94589 1.52607H7.94655ZM8.18384 3.2398C8.1579 3.23972 8.1322 3.24475 8.10822 3.25461C8.08423 3.26448 8.06243 3.27898 8.04406 3.29729C8.02569 3.3156 8.01111 3.33736 8.00117 3.36131C7.99122 3.38526 7.9861 3.41094 7.9861 3.43688C7.9861 3.48932 8.00693 3.53962 8.04402 3.5767C8.0811 3.61379 8.1314 3.63462 8.18384 3.63462C8.67386 3.62527 9.16089 3.71307 9.6168 3.89294C10.0727 4.07282 10.4885 4.34121 10.8401 4.68263C11.5586 5.3813 11.9086 6.31726 11.9217 7.54323C11.9217 7.5692 11.9269 7.59491 11.9368 7.61891C11.9467 7.6429 11.9613 7.66469 11.9797 7.68306C11.998 7.70142 12.0198 7.71598 12.0438 7.72592C12.0678 7.73586 12.0935 7.74097 12.1195 7.74097V7.73504C12.1719 7.73504 12.2222 7.71421 12.2593 7.67712C12.2964 7.64004 12.3172 7.58975 12.3172 7.5373C12.3417 6.96075 12.2485 6.38526 12.0434 5.84588C11.8383 5.30649 11.5255 4.8145 11.1242 4.39986C10.3398 3.63528 9.34983 3.2398 8.18318 3.2398H8.18384ZM5.57766 3.6946C5.43748 3.67462 5.29467 3.70249 5.17229 3.77369H5.16438C4.89414 3.93188 4.64499 4.12962 4.40771 4.39327C4.22974 4.60419 4.13022 4.81445 4.10385 5.01878C4.08834 5.13862 4.0996 5.26041 4.13681 5.37537L4.14999 5.38196C4.35315 5.97922 4.61824 6.55359 4.94094 7.09569C5.35923 7.85488 5.87314 8.55731 6.47011 9.18578L6.48989 9.21214L6.51625 9.23191L6.53602 9.25169L6.5558 9.27146C7.18673 9.86994 7.89102 10.386 8.65182 10.8072C9.52186 11.2818 10.0505 11.5059 10.3669 11.5982V11.6048C10.4591 11.6311 10.5435 11.6443 10.6292 11.6443C10.8993 11.6246 11.155 11.5151 11.3556 11.3332C11.6126 11.1025 11.8169 10.8468 11.9685 10.5765V10.5699C12.1201 10.2865 12.0674 10.0156 11.8499 9.83106C11.4115 9.44758 10.9369 9.10763 10.4328 8.81601C10.0966 8.63145 9.75388 8.7435 9.61546 8.92806L9.31885 9.3031C9.16725 9.48766 8.89042 9.46129 8.89042 9.46129L8.88251 9.46788C6.82604 8.94058 6.27897 6.8584 6.27897 6.8584C6.27897 6.8584 6.2526 6.57498 6.44375 6.42997L6.81286 6.13336C6.99082 5.98836 7.11606 5.64561 6.92491 5.30946C6.63367 4.80505 6.2937 4.33041 5.90985 3.89234C5.82636 3.78878 5.70849 3.71862 5.57766 3.6946ZM8.52593 4.28122C8.47348 4.2814 8.42326 4.3024 8.3863 4.3396C8.34934 4.37681 8.32867 4.42717 8.32885 4.47962C8.32902 4.53206 8.35002 4.58229 8.38723 4.61925C8.42444 4.65621 8.4748 4.67687 8.52724 4.6767C9.18686 4.68815 9.81502 4.96074 10.2739 5.43469C10.481 5.66309 10.6401 5.93066 10.742 6.22161C10.8439 6.51256 10.8865 6.82098 10.8671 7.12864C10.8673 7.18097 10.8882 7.2311 10.9253 7.26804C10.9624 7.30498 11.0125 7.32572 11.0649 7.32572L11.0715 7.33363C11.0975 7.33363 11.1233 7.3285 11.1473 7.31852C11.1713 7.30854 11.1932 7.29391 11.2115 7.27548C11.2299 7.25705 11.2444 7.23518 11.2543 7.21111C11.2642 7.18704 11.2693 7.16126 11.2692 7.13523C11.289 6.35088 11.0451 5.69175 10.5639 5.16445C10.0828 4.63715 9.41047 4.34054 8.55361 4.28122C8.54439 4.28057 8.53514 4.28057 8.52593 4.28122ZM8.8489 5.34835C8.82245 5.34757 8.79611 5.352 8.77139 5.3614C8.74666 5.3708 8.72402 5.38498 8.70477 5.40313C8.68552 5.42128 8.67004 5.44304 8.6592 5.46717C8.64836 5.4913 8.64238 5.51733 8.6416 5.54378C8.64082 5.57022 8.64526 5.59656 8.65466 5.62129C8.66406 5.64601 8.67824 5.66865 8.69638 5.6879C8.71453 5.70715 8.73629 5.72263 8.76043 5.73347C8.78456 5.74431 8.81059 5.75029 8.83703 5.75107C9.48957 5.78403 9.80595 6.11359 9.84549 6.79249C9.84721 6.84378 9.86879 6.8924 9.90569 6.92807C9.94259 6.96374 9.99191 6.98366 10.0432 6.98364H10.0498C10.0764 6.98281 10.1025 6.97664 10.1266 6.9655C10.1507 6.95435 10.1724 6.93847 10.1902 6.91878C10.208 6.89909 10.2217 6.87601 10.2305 6.85092C10.2392 6.82582 10.2428 6.79922 10.241 6.77272C10.1948 5.88949 9.71367 5.39448 8.85681 5.34835C8.85417 5.34829 8.85153 5.34829 8.8489 5.34835Z" fill="white"/>
</svg>
